<mxfile host="app.diagrams.net" modified="2023-03-18T17:45:21.678Z" agent="5.0 (Windows NT 10.0; Win64; x64) AppleWebKit/537.36 (KHTML, like Gecko) Chrome/109.0.0.0 Safari/537.36 OPR/95.0.0.0" etag="BoE1yAWgRT_aVVVCKB-V" version="21.0.8" type="github">
  <diagram name="Halaman-1" id="My34Ea7B5HE9uBnM6y56">
    <mxGraphModel dx="1420" dy="924" grid="1" gridSize="10" guides="1" tooltips="1" connect="1" arrows="1" fold="1" page="1" pageScale="1" pageWidth="827" pageHeight="1169" math="0" shadow="0">
      <root>
        <mxCell id="0" />
        <mxCell id="1" parent="0" />
        <mxCell id="FS_mdOsVPUlgW1yLbpHe-3" value="" style="edgeStyle=orthogonalEdgeStyle;rounded=0;orthogonalLoop=1;jettySize=auto;html=1;" parent="1" source="FS_mdOsVPUlgW1yLbpHe-1" edge="1">
          <mxGeometry relative="1" as="geometry">
            <mxPoint x="210" y="120" as="targetPoint" />
          </mxGeometry>
        </mxCell>
        <mxCell id="FS_mdOsVPUlgW1yLbpHe-1" value="START" style="strokeWidth=2;html=1;shape=mxgraph.flowchart.terminator;whiteSpace=wrap;" parent="1" vertex="1">
          <mxGeometry x="170" y="40" width="80" height="40" as="geometry" />
        </mxCell>
        <mxCell id="FS_mdOsVPUlgW1yLbpHe-5" value="" style="edgeStyle=orthogonalEdgeStyle;rounded=0;orthogonalLoop=1;jettySize=auto;html=1;" parent="1" target="FS_mdOsVPUlgW1yLbpHe-4" edge="1">
          <mxGeometry relative="1" as="geometry">
            <mxPoint x="210" y="160" as="sourcePoint" />
          </mxGeometry>
        </mxCell>
        <mxCell id="FS_mdOsVPUlgW1yLbpHe-2" value="&amp;nbsp;int database [2][2][2][2]" style="shape=hexagon;perimeter=hexagonPerimeter2;whiteSpace=wrap;html=1;fixedSize=1;strokeWidth=2;" parent="1" vertex="1">
          <mxGeometry x="100" y="120" width="220" height="40" as="geometry" />
        </mxCell>
        <mxCell id="FS_mdOsVPUlgW1yLbpHe-7" value="" style="edgeStyle=orthogonalEdgeStyle;rounded=0;orthogonalLoop=1;jettySize=auto;html=1;" parent="1" source="FS_mdOsVPUlgW1yLbpHe-4" target="FS_mdOsVPUlgW1yLbpHe-6" edge="1">
          <mxGeometry relative="1" as="geometry" />
        </mxCell>
        <mxCell id="FS_mdOsVPUlgW1yLbpHe-4" value="&amp;nbsp;int i = 0" style="shape=hexagon;perimeter=hexagonPerimeter2;whiteSpace=wrap;html=1;fixedSize=1;strokeWidth=2;" parent="1" vertex="1">
          <mxGeometry x="150" y="200" width="120" height="40" as="geometry" />
        </mxCell>
        <mxCell id="FS_mdOsVPUlgW1yLbpHe-6" value="i&amp;lt;2" style="rhombus;whiteSpace=wrap;html=1;strokeWidth=2;" parent="1" vertex="1">
          <mxGeometry x="190" y="280" width="40" height="40" as="geometry" />
        </mxCell>
        <mxCell id="FS_mdOsVPUlgW1yLbpHe-8" value="i++" style="whiteSpace=wrap;html=1;strokeWidth=2;" parent="1" vertex="1">
          <mxGeometry x="20" y="430" width="90" height="40" as="geometry" />
        </mxCell>
        <mxCell id="FS_mdOsVPUlgW1yLbpHe-11" value="cout &amp;lt;&amp;lt;&quot;\n&quot;;" style="shape=parallelogram;perimeter=parallelogramPerimeter;whiteSpace=wrap;html=1;fixedSize=1;strokeWidth=2;" parent="1" vertex="1">
          <mxGeometry x="354" y="280" width="120" height="40" as="geometry" />
        </mxCell>
        <mxCell id="FS_mdOsVPUlgW1yLbpHe-14" value="" style="endArrow=classic;html=1;rounded=0;exitX=0.5;exitY=1;exitDx=0;exitDy=0;entryX=0.5;entryY=0;entryDx=0;entryDy=0;" parent="1" source="FS_mdOsVPUlgW1yLbpHe-11" edge="1">
          <mxGeometry width="50" height="50" relative="1" as="geometry">
            <mxPoint x="390" y="350" as="sourcePoint" />
            <mxPoint x="414" y="360" as="targetPoint" />
          </mxGeometry>
        </mxCell>
        <mxCell id="bL36hwAB8mRqSMdFLCKd-1" value="int j = 0" style="shape=hexagon;perimeter=hexagonPerimeter2;whiteSpace=wrap;html=1;fixedSize=1;strokeWidth=2;" vertex="1" parent="1">
          <mxGeometry x="150" y="350" width="120" height="40" as="geometry" />
        </mxCell>
        <mxCell id="bL36hwAB8mRqSMdFLCKd-2" value="j&amp;lt;2" style="rhombus;whiteSpace=wrap;html=1;strokeWidth=2;" vertex="1" parent="1">
          <mxGeometry x="190" y="430" width="40" height="40" as="geometry" />
        </mxCell>
        <mxCell id="bL36hwAB8mRqSMdFLCKd-3" value="int k = 0" style="shape=hexagon;perimeter=hexagonPerimeter2;whiteSpace=wrap;html=1;fixedSize=1;strokeWidth=2;" vertex="1" parent="1">
          <mxGeometry x="150" y="500" width="120" height="40" as="geometry" />
        </mxCell>
        <mxCell id="bL36hwAB8mRqSMdFLCKd-4" value="k&amp;lt;2" style="rhombus;whiteSpace=wrap;html=1;strokeWidth=2;" vertex="1" parent="1">
          <mxGeometry x="190" y="570" width="40" height="40" as="geometry" />
        </mxCell>
        <mxCell id="bL36hwAB8mRqSMdFLCKd-5" value="int l = 0" style="shape=hexagon;perimeter=hexagonPerimeter2;whiteSpace=wrap;html=1;fixedSize=1;strokeWidth=2;" vertex="1" parent="1">
          <mxGeometry x="150" y="640" width="120" height="40" as="geometry" />
        </mxCell>
        <mxCell id="bL36hwAB8mRqSMdFLCKd-96" value="" style="edgeStyle=orthogonalEdgeStyle;rounded=0;orthogonalLoop=1;jettySize=auto;html=1;" edge="1" parent="1" source="bL36hwAB8mRqSMdFLCKd-6" target="bL36hwAB8mRqSMdFLCKd-7">
          <mxGeometry relative="1" as="geometry" />
        </mxCell>
        <mxCell id="bL36hwAB8mRqSMdFLCKd-6" value="l&amp;lt;2" style="rhombus;whiteSpace=wrap;html=1;strokeWidth=2;" vertex="1" parent="1">
          <mxGeometry x="190" y="710" width="40" height="40" as="geometry" />
        </mxCell>
        <mxCell id="bL36hwAB8mRqSMdFLCKd-7" value="cout &amp;lt;&amp;lt; &quot;Database ke- &quot; &amp;lt;&amp;lt; i+1 &amp;lt;&amp;lt; &quot;,tabel ke-&quot; &amp;lt;&amp;lt; j+1 &amp;lt;&amp;lt;&amp;nbsp;&lt;br&gt;&quot;baris ke-&quot; &amp;lt;&amp;lt; k+1 &amp;lt;&amp;lt; &quot;kolom ke-&quot; &amp;lt;&amp;lt; l+1 &amp;lt;&amp;lt; &quot;=&quot;;" style="shape=parallelogram;perimeter=parallelogramPerimeter;whiteSpace=wrap;html=1;fixedSize=1;" vertex="1" parent="1">
          <mxGeometry x="50" y="780" width="320" height="80" as="geometry" />
        </mxCell>
        <mxCell id="bL36hwAB8mRqSMdFLCKd-8" value="cin &amp;gt;&amp;gt; database [i][j][k][l];" style="shape=parallelogram;perimeter=parallelogramPerimeter;whiteSpace=wrap;html=1;fixedSize=1;" vertex="1" parent="1">
          <mxGeometry x="95" y="900" width="230" height="30" as="geometry" />
        </mxCell>
        <mxCell id="bL36hwAB8mRqSMdFLCKd-9" value="l++" style="rounded=0;whiteSpace=wrap;html=1;" vertex="1" parent="1">
          <mxGeometry x="150" y="980" width="120" height="30" as="geometry" />
        </mxCell>
        <mxCell id="bL36hwAB8mRqSMdFLCKd-13" value="" style="endArrow=classic;html=1;rounded=0;exitX=0.5;exitY=1;exitDx=0;exitDy=0;entryX=0.5;entryY=0;entryDx=0;entryDy=0;" edge="1" parent="1" source="FS_mdOsVPUlgW1yLbpHe-6" target="bL36hwAB8mRqSMdFLCKd-1">
          <mxGeometry width="50" height="50" relative="1" as="geometry">
            <mxPoint x="420" y="440" as="sourcePoint" />
            <mxPoint x="470" y="390" as="targetPoint" />
          </mxGeometry>
        </mxCell>
        <mxCell id="bL36hwAB8mRqSMdFLCKd-15" value="" style="endArrow=classic;html=1;rounded=0;exitX=0.5;exitY=1;exitDx=0;exitDy=0;entryX=0.5;entryY=0;entryDx=0;entryDy=0;" edge="1" parent="1" source="bL36hwAB8mRqSMdFLCKd-7" target="bL36hwAB8mRqSMdFLCKd-8">
          <mxGeometry width="50" height="50" relative="1" as="geometry">
            <mxPoint x="394" y="685" as="sourcePoint" />
            <mxPoint x="444" y="635" as="targetPoint" />
          </mxGeometry>
        </mxCell>
        <mxCell id="bL36hwAB8mRqSMdFLCKd-16" value="" style="endArrow=classic;html=1;rounded=0;exitX=1;exitY=0.5;exitDx=0;exitDy=0;entryX=0;entryY=0.5;entryDx=0;entryDy=0;" edge="1" parent="1" source="FS_mdOsVPUlgW1yLbpHe-6" target="FS_mdOsVPUlgW1yLbpHe-11">
          <mxGeometry width="50" height="50" relative="1" as="geometry">
            <mxPoint x="424" y="620" as="sourcePoint" />
            <mxPoint x="474" y="570" as="targetPoint" />
          </mxGeometry>
        </mxCell>
        <mxCell id="bL36hwAB8mRqSMdFLCKd-17" value="" style="endArrow=classic;html=1;rounded=0;exitX=0.5;exitY=1;exitDx=0;exitDy=0;entryX=0.5;entryY=0;entryDx=0;entryDy=0;" edge="1" parent="1" source="bL36hwAB8mRqSMdFLCKd-8" target="bL36hwAB8mRqSMdFLCKd-9">
          <mxGeometry width="50" height="50" relative="1" as="geometry">
            <mxPoint x="414" y="740" as="sourcePoint" />
            <mxPoint x="464" y="690" as="targetPoint" />
          </mxGeometry>
        </mxCell>
        <mxCell id="bL36hwAB8mRqSMdFLCKd-18" value="" style="endArrow=classic;html=1;rounded=0;exitX=0.5;exitY=1;exitDx=0;exitDy=0;" edge="1" parent="1" source="bL36hwAB8mRqSMdFLCKd-6" target="bL36hwAB8mRqSMdFLCKd-7">
          <mxGeometry width="50" height="50" relative="1" as="geometry">
            <mxPoint x="400" y="410" as="sourcePoint" />
            <mxPoint x="450" y="360" as="targetPoint" />
          </mxGeometry>
        </mxCell>
        <mxCell id="bL36hwAB8mRqSMdFLCKd-19" value="" style="endArrow=classic;html=1;rounded=0;exitX=0.5;exitY=1;exitDx=0;exitDy=0;entryX=0.5;entryY=0;entryDx=0;entryDy=0;" edge="1" parent="1" source="bL36hwAB8mRqSMdFLCKd-5" target="bL36hwAB8mRqSMdFLCKd-6">
          <mxGeometry width="50" height="50" relative="1" as="geometry">
            <mxPoint x="410" y="420" as="sourcePoint" />
            <mxPoint x="460" y="370" as="targetPoint" />
          </mxGeometry>
        </mxCell>
        <mxCell id="bL36hwAB8mRqSMdFLCKd-20" value="" style="endArrow=classic;html=1;rounded=0;exitX=0.5;exitY=1;exitDx=0;exitDy=0;entryX=0.5;entryY=0;entryDx=0;entryDy=0;" edge="1" parent="1" source="bL36hwAB8mRqSMdFLCKd-4" target="bL36hwAB8mRqSMdFLCKd-5">
          <mxGeometry width="50" height="50" relative="1" as="geometry">
            <mxPoint x="420" y="430" as="sourcePoint" />
            <mxPoint x="470" y="380" as="targetPoint" />
          </mxGeometry>
        </mxCell>
        <mxCell id="bL36hwAB8mRqSMdFLCKd-21" value="" style="endArrow=classic;html=1;rounded=0;exitX=0.5;exitY=1;exitDx=0;exitDy=0;entryX=0.5;entryY=0;entryDx=0;entryDy=0;" edge="1" parent="1" source="bL36hwAB8mRqSMdFLCKd-3" target="bL36hwAB8mRqSMdFLCKd-4">
          <mxGeometry width="50" height="50" relative="1" as="geometry">
            <mxPoint x="430" y="440" as="sourcePoint" />
            <mxPoint x="480" y="390" as="targetPoint" />
          </mxGeometry>
        </mxCell>
        <mxCell id="bL36hwAB8mRqSMdFLCKd-22" value="" style="endArrow=classic;html=1;rounded=0;exitX=0.5;exitY=1;exitDx=0;exitDy=0;entryX=0.5;entryY=0;entryDx=0;entryDy=0;" edge="1" parent="1" source="bL36hwAB8mRqSMdFLCKd-2" target="bL36hwAB8mRqSMdFLCKd-3">
          <mxGeometry width="50" height="50" relative="1" as="geometry">
            <mxPoint x="440" y="450" as="sourcePoint" />
            <mxPoint x="490" y="400" as="targetPoint" />
          </mxGeometry>
        </mxCell>
        <mxCell id="bL36hwAB8mRqSMdFLCKd-23" value="" style="endArrow=classic;html=1;rounded=0;exitX=0.5;exitY=1;exitDx=0;exitDy=0;" edge="1" parent="1" source="bL36hwAB8mRqSMdFLCKd-1" target="bL36hwAB8mRqSMdFLCKd-2">
          <mxGeometry width="50" height="50" relative="1" as="geometry">
            <mxPoint x="450" y="460" as="sourcePoint" />
            <mxPoint x="500" y="410" as="targetPoint" />
          </mxGeometry>
        </mxCell>
        <mxCell id="bL36hwAB8mRqSMdFLCKd-26" value="&amp;nbsp;int i = 0" style="shape=hexagon;perimeter=hexagonPerimeter2;whiteSpace=wrap;html=1;fixedSize=1;strokeWidth=2;" vertex="1" parent="1">
          <mxGeometry x="729" y="210" width="120" height="40" as="geometry" />
        </mxCell>
        <mxCell id="bL36hwAB8mRqSMdFLCKd-27" value="i&amp;lt;2" style="rhombus;whiteSpace=wrap;html=1;strokeWidth=2;" vertex="1" parent="1">
          <mxGeometry x="770" y="290" width="40" height="40" as="geometry" />
        </mxCell>
        <mxCell id="bL36hwAB8mRqSMdFLCKd-28" value="" style="endArrow=classic;html=1;rounded=0;exitX=0;exitY=0.5;exitDx=0;exitDy=0;entryX=1;entryY=0.5;entryDx=0;entryDy=0;" edge="1" parent="1" source="bL36hwAB8mRqSMdFLCKd-2" target="FS_mdOsVPUlgW1yLbpHe-8">
          <mxGeometry width="50" height="50" relative="1" as="geometry">
            <mxPoint x="520" y="560" as="sourcePoint" />
            <mxPoint x="570" y="510" as="targetPoint" />
          </mxGeometry>
        </mxCell>
        <mxCell id="bL36hwAB8mRqSMdFLCKd-29" value="" style="endArrow=classic;html=1;rounded=0;exitX=0.5;exitY=0;exitDx=0;exitDy=0;entryX=0;entryY=0.5;entryDx=0;entryDy=0;" edge="1" parent="1" source="FS_mdOsVPUlgW1yLbpHe-8" target="FS_mdOsVPUlgW1yLbpHe-6">
          <mxGeometry width="50" height="50" relative="1" as="geometry">
            <mxPoint x="530" y="570" as="sourcePoint" />
            <mxPoint x="580" y="520" as="targetPoint" />
            <Array as="points">
              <mxPoint x="65" y="300" />
            </Array>
          </mxGeometry>
        </mxCell>
        <mxCell id="bL36hwAB8mRqSMdFLCKd-31" value="" style="endArrow=classic;html=1;rounded=0;exitX=0.5;exitY=1;exitDx=0;exitDy=0;entryX=0.5;entryY=0;entryDx=0;entryDy=0;" edge="1" parent="1" source="bL36hwAB8mRqSMdFLCKd-26" target="bL36hwAB8mRqSMdFLCKd-27">
          <mxGeometry width="50" height="50" relative="1" as="geometry">
            <mxPoint x="550" y="590" as="sourcePoint" />
            <mxPoint x="600" y="540" as="targetPoint" />
          </mxGeometry>
        </mxCell>
        <mxCell id="bL36hwAB8mRqSMdFLCKd-34" value="&amp;nbsp;int j&amp;nbsp; = 0" style="shape=hexagon;perimeter=hexagonPerimeter2;whiteSpace=wrap;html=1;fixedSize=1;strokeWidth=2;" vertex="1" parent="1">
          <mxGeometry x="730" y="370" width="120" height="40" as="geometry" />
        </mxCell>
        <mxCell id="bL36hwAB8mRqSMdFLCKd-35" value="&amp;nbsp;int l = 0" style="shape=hexagon;perimeter=hexagonPerimeter2;whiteSpace=wrap;html=1;fixedSize=1;strokeWidth=2;" vertex="1" parent="1">
          <mxGeometry x="730" y="720" width="120" height="40" as="geometry" />
        </mxCell>
        <mxCell id="bL36hwAB8mRqSMdFLCKd-36" value="&amp;nbsp;int k = 0" style="shape=hexagon;perimeter=hexagonPerimeter2;whiteSpace=wrap;html=1;fixedSize=1;strokeWidth=2;" vertex="1" parent="1">
          <mxGeometry x="730" y="540" width="120" height="40" as="geometry" />
        </mxCell>
        <mxCell id="bL36hwAB8mRqSMdFLCKd-40" value="j&amp;lt;2" style="rhombus;whiteSpace=wrap;html=1;strokeWidth=2;" vertex="1" parent="1">
          <mxGeometry x="770" y="460" width="40" height="40" as="geometry" />
        </mxCell>
        <mxCell id="bL36hwAB8mRqSMdFLCKd-41" value="l&amp;lt;2" style="rhombus;whiteSpace=wrap;html=1;strokeWidth=2;" vertex="1" parent="1">
          <mxGeometry x="770" y="810" width="40" height="40" as="geometry" />
        </mxCell>
        <mxCell id="bL36hwAB8mRqSMdFLCKd-42" value="k&amp;lt;2" style="rhombus;whiteSpace=wrap;html=1;strokeWidth=2;" vertex="1" parent="1">
          <mxGeometry x="770" y="630" width="40" height="40" as="geometry" />
        </mxCell>
        <mxCell id="bL36hwAB8mRqSMdFLCKd-46" value="K++" style="whiteSpace=wrap;html=1;strokeWidth=2;" vertex="1" parent="1">
          <mxGeometry x="590" y="810" width="90" height="40" as="geometry" />
        </mxCell>
        <mxCell id="bL36hwAB8mRqSMdFLCKd-47" value="i++" style="whiteSpace=wrap;html=1;strokeWidth=2;" vertex="1" parent="1">
          <mxGeometry x="590" y="460" width="90" height="40" as="geometry" />
        </mxCell>
        <mxCell id="bL36hwAB8mRqSMdFLCKd-48" value="cout &amp;lt;&amp;lt; &quot;&amp;gt;&amp;gt;&amp;gt;&quot; &amp;lt;&amp;lt;database[i][j][k][l]&amp;lt;&amp;lt; &quot;+&quot; &amp;lt;&amp;lt;database[i+1]&lt;br&gt;[j][k][l]&amp;lt;&amp;lt; &quot;=&quot; &amp;lt;&amp;lt;database[i][j][k][l] + database[i+1][j][k][l]&amp;lt;&amp;lt;&lt;br&gt;endl;" style="shape=parallelogram;perimeter=parallelogramPerimeter;whiteSpace=wrap;html=1;fixedSize=1;" vertex="1" parent="1">
          <mxGeometry x="615" y="900" width="350" height="80" as="geometry" />
        </mxCell>
        <mxCell id="bL36hwAB8mRqSMdFLCKd-49" value="cout &amp;lt;&amp;lt;&quot;\n&quot;;" style="shape=parallelogram;perimeter=parallelogramPerimeter;whiteSpace=wrap;html=1;fixedSize=1;strokeWidth=2;" vertex="1" parent="1">
          <mxGeometry x="870" y="290" width="120" height="40" as="geometry" />
        </mxCell>
        <mxCell id="bL36hwAB8mRqSMdFLCKd-50" value="system(&quot;PAUSE&quot;;" style="rounded=0;whiteSpace=wrap;html=1;" vertex="1" parent="1">
          <mxGeometry x="1050" y="295" width="120" height="30" as="geometry" />
        </mxCell>
        <mxCell id="bL36hwAB8mRqSMdFLCKd-51" value="end" style="strokeWidth=2;html=1;shape=mxgraph.flowchart.terminator;whiteSpace=wrap;" vertex="1" parent="1">
          <mxGeometry x="760" y="1080" width="80" height="40" as="geometry" />
        </mxCell>
        <mxCell id="bL36hwAB8mRqSMdFLCKd-52" value="l++" style="whiteSpace=wrap;html=1;strokeWidth=2;" vertex="1" parent="1">
          <mxGeometry x="745" y="1010" width="90" height="40" as="geometry" />
        </mxCell>
        <mxCell id="bL36hwAB8mRqSMdFLCKd-53" value="" style="endArrow=classic;html=1;rounded=0;exitX=0;exitY=0.5;exitDx=0;exitDy=0;entryX=1;entryY=0.5;entryDx=0;entryDy=0;" edge="1" parent="1" source="bL36hwAB8mRqSMdFLCKd-40" target="bL36hwAB8mRqSMdFLCKd-47">
          <mxGeometry width="50" height="50" relative="1" as="geometry">
            <mxPoint x="560" y="600" as="sourcePoint" />
            <mxPoint x="610" y="550" as="targetPoint" />
          </mxGeometry>
        </mxCell>
        <mxCell id="bL36hwAB8mRqSMdFLCKd-54" value="" style="endArrow=classic;html=1;rounded=0;exitX=0.5;exitY=1;exitDx=0;exitDy=0;entryX=0.5;entryY=0;entryDx=0;entryDy=0;" edge="1" parent="1" source="bL36hwAB8mRqSMdFLCKd-27" target="bL36hwAB8mRqSMdFLCKd-34">
          <mxGeometry width="50" height="50" relative="1" as="geometry">
            <mxPoint x="510" y="570" as="sourcePoint" />
            <mxPoint x="620" y="560" as="targetPoint" />
          </mxGeometry>
        </mxCell>
        <mxCell id="bL36hwAB8mRqSMdFLCKd-55" value="" style="endArrow=classic;html=1;rounded=0;exitX=0.5;exitY=1;exitDx=0;exitDy=0;entryX=0.5;entryY=0;entryDx=0;entryDy=0;" edge="1" parent="1" source="bL36hwAB8mRqSMdFLCKd-34" target="bL36hwAB8mRqSMdFLCKd-40">
          <mxGeometry width="50" height="50" relative="1" as="geometry">
            <mxPoint x="580" y="620" as="sourcePoint" />
            <mxPoint x="630" y="570" as="targetPoint" />
          </mxGeometry>
        </mxCell>
        <mxCell id="bL36hwAB8mRqSMdFLCKd-56" value="" style="endArrow=classic;html=1;rounded=0;exitX=0.5;exitY=1;exitDx=0;exitDy=0;entryX=0.5;entryY=0;entryDx=0;entryDy=0;" edge="1" parent="1" source="bL36hwAB8mRqSMdFLCKd-40" target="bL36hwAB8mRqSMdFLCKd-36">
          <mxGeometry width="50" height="50" relative="1" as="geometry">
            <mxPoint x="590" y="630" as="sourcePoint" />
            <mxPoint x="640" y="580" as="targetPoint" />
          </mxGeometry>
        </mxCell>
        <mxCell id="bL36hwAB8mRqSMdFLCKd-57" value="" style="endArrow=classic;html=1;rounded=0;exitX=0.5;exitY=1;exitDx=0;exitDy=0;entryX=0.5;entryY=0;entryDx=0;entryDy=0;" edge="1" parent="1" source="bL36hwAB8mRqSMdFLCKd-36" target="bL36hwAB8mRqSMdFLCKd-42">
          <mxGeometry width="50" height="50" relative="1" as="geometry">
            <mxPoint x="600" y="640" as="sourcePoint" />
            <mxPoint x="650" y="590" as="targetPoint" />
          </mxGeometry>
        </mxCell>
        <mxCell id="bL36hwAB8mRqSMdFLCKd-58" value="" style="endArrow=classic;html=1;rounded=0;exitX=0.5;exitY=1;exitDx=0;exitDy=0;entryX=0.5;entryY=0;entryDx=0;entryDy=0;" edge="1" parent="1" source="bL36hwAB8mRqSMdFLCKd-42" target="bL36hwAB8mRqSMdFLCKd-35">
          <mxGeometry width="50" height="50" relative="1" as="geometry">
            <mxPoint x="610" y="650" as="sourcePoint" />
            <mxPoint x="660" y="600" as="targetPoint" />
          </mxGeometry>
        </mxCell>
        <mxCell id="bL36hwAB8mRqSMdFLCKd-59" value="" style="endArrow=classic;html=1;rounded=0;exitX=1;exitY=0.5;exitDx=0;exitDy=0;entryX=0;entryY=0.5;entryDx=0;entryDy=0;" edge="1" parent="1" source="bL36hwAB8mRqSMdFLCKd-49" target="bL36hwAB8mRqSMdFLCKd-50">
          <mxGeometry width="50" height="50" relative="1" as="geometry">
            <mxPoint x="980" y="395" as="sourcePoint" />
            <mxPoint x="1030" y="345" as="targetPoint" />
          </mxGeometry>
        </mxCell>
        <mxCell id="bL36hwAB8mRqSMdFLCKd-60" value="" style="endArrow=classic;html=1;rounded=0;exitX=0.5;exitY=1;exitDx=0;exitDy=0;entryX=0.5;entryY=0;entryDx=0;entryDy=0;" edge="1" parent="1" source="bL36hwAB8mRqSMdFLCKd-35" target="bL36hwAB8mRqSMdFLCKd-41">
          <mxGeometry width="50" height="50" relative="1" as="geometry">
            <mxPoint x="630" y="670" as="sourcePoint" />
            <mxPoint x="680" y="620" as="targetPoint" />
          </mxGeometry>
        </mxCell>
        <mxCell id="bL36hwAB8mRqSMdFLCKd-62" value="" style="endArrow=classic;html=1;rounded=0;exitX=0.5;exitY=0;exitDx=0;exitDy=0;entryX=0;entryY=0.5;entryDx=0;entryDy=0;" edge="1" parent="1" source="bL36hwAB8mRqSMdFLCKd-47" target="bL36hwAB8mRqSMdFLCKd-27">
          <mxGeometry width="50" height="50" relative="1" as="geometry">
            <mxPoint x="540" y="615" as="sourcePoint" />
            <mxPoint x="590" y="565" as="targetPoint" />
            <Array as="points">
              <mxPoint x="635" y="310" />
            </Array>
          </mxGeometry>
        </mxCell>
        <mxCell id="bL36hwAB8mRqSMdFLCKd-63" value="" style="endArrow=classic;html=1;rounded=0;exitX=0.5;exitY=0;exitDx=0;exitDy=0;entryX=0;entryY=0.5;entryDx=0;entryDy=0;" edge="1" parent="1" source="bL36hwAB8mRqSMdFLCKd-46" target="bL36hwAB8mRqSMdFLCKd-42">
          <mxGeometry width="50" height="50" relative="1" as="geometry">
            <mxPoint x="650" y="690" as="sourcePoint" />
            <mxPoint x="700" y="640" as="targetPoint" />
            <Array as="points">
              <mxPoint x="635" y="650" />
            </Array>
          </mxGeometry>
        </mxCell>
        <mxCell id="bL36hwAB8mRqSMdFLCKd-64" value="" style="endArrow=classic;html=1;rounded=0;exitX=0;exitY=0.5;exitDx=0;exitDy=0;entryX=1;entryY=0.5;entryDx=0;entryDy=0;" edge="1" parent="1" source="bL36hwAB8mRqSMdFLCKd-41" target="bL36hwAB8mRqSMdFLCKd-46">
          <mxGeometry width="50" height="50" relative="1" as="geometry">
            <mxPoint x="660" y="700" as="sourcePoint" />
            <mxPoint x="710" y="650" as="targetPoint" />
          </mxGeometry>
        </mxCell>
        <mxCell id="bL36hwAB8mRqSMdFLCKd-65" value="" style="endArrow=classic;html=1;rounded=0;exitX=0.5;exitY=1;exitDx=0;exitDy=0;" edge="1" parent="1" source="bL36hwAB8mRqSMdFLCKd-41" target="bL36hwAB8mRqSMdFLCKd-48">
          <mxGeometry width="50" height="50" relative="1" as="geometry">
            <mxPoint x="670" y="710" as="sourcePoint" />
            <mxPoint x="720" y="660" as="targetPoint" />
          </mxGeometry>
        </mxCell>
        <mxCell id="bL36hwAB8mRqSMdFLCKd-66" value="" style="endArrow=classic;html=1;rounded=0;exitX=1;exitY=0.5;exitDx=0;exitDy=0;entryX=0;entryY=0.5;entryDx=0;entryDy=0;" edge="1" parent="1" source="bL36hwAB8mRqSMdFLCKd-27" target="bL36hwAB8mRqSMdFLCKd-49">
          <mxGeometry width="50" height="50" relative="1" as="geometry">
            <mxPoint x="680" y="720" as="sourcePoint" />
            <mxPoint x="730" y="670" as="targetPoint" />
          </mxGeometry>
        </mxCell>
        <mxCell id="bL36hwAB8mRqSMdFLCKd-67" value="" style="endArrow=classic;html=1;rounded=0;exitX=0.5;exitY=1;exitDx=0;exitDy=0;entryX=0.5;entryY=0;entryDx=0;entryDy=0;" edge="1" parent="1" target="bL36hwAB8mRqSMdFLCKd-26">
          <mxGeometry width="50" height="50" relative="1" as="geometry">
            <mxPoint x="790" y="140" as="sourcePoint" />
            <mxPoint x="1060" y="320" as="targetPoint" />
          </mxGeometry>
        </mxCell>
        <mxCell id="bL36hwAB8mRqSMdFLCKd-68" value="j++" style="whiteSpace=wrap;html=1;strokeWidth=2;" vertex="1" parent="1">
          <mxGeometry x="354" y="570" width="90" height="40" as="geometry" />
        </mxCell>
        <mxCell id="bL36hwAB8mRqSMdFLCKd-69" value="k++" style="whiteSpace=wrap;html=1;strokeWidth=2;" vertex="1" parent="1">
          <mxGeometry x="30" y="710" width="90" height="40" as="geometry" />
        </mxCell>
        <mxCell id="bL36hwAB8mRqSMdFLCKd-70" value="" style="endArrow=classic;html=1;rounded=0;exitX=0;exitY=0.5;exitDx=0;exitDy=0;entryX=1;entryY=0.5;entryDx=0;entryDy=0;" edge="1" parent="1" source="bL36hwAB8mRqSMdFLCKd-6" target="bL36hwAB8mRqSMdFLCKd-69">
          <mxGeometry width="50" height="50" relative="1" as="geometry">
            <mxPoint x="390" y="630" as="sourcePoint" />
            <mxPoint x="300" y="630" as="targetPoint" />
          </mxGeometry>
        </mxCell>
        <mxCell id="bL36hwAB8mRqSMdFLCKd-71" value="" style="endArrow=classic;html=1;rounded=0;exitX=0.5;exitY=0;exitDx=0;exitDy=0;entryX=0;entryY=0.5;entryDx=0;entryDy=0;" edge="1" parent="1" source="bL36hwAB8mRqSMdFLCKd-69" target="bL36hwAB8mRqSMdFLCKd-4">
          <mxGeometry width="50" height="50" relative="1" as="geometry">
            <mxPoint x="384" y="690" as="sourcePoint" />
            <mxPoint x="294" y="690" as="targetPoint" />
            <Array as="points">
              <mxPoint x="75" y="590" />
            </Array>
          </mxGeometry>
        </mxCell>
        <mxCell id="bL36hwAB8mRqSMdFLCKd-72" value="" style="endArrow=classic;html=1;rounded=0;exitX=1;exitY=0.5;exitDx=0;exitDy=0;entryX=1;entryY=0.5;entryDx=0;entryDy=0;" edge="1" parent="1" source="bL36hwAB8mRqSMdFLCKd-52" target="bL36hwAB8mRqSMdFLCKd-41">
          <mxGeometry width="50" height="50" relative="1" as="geometry">
            <mxPoint x="394" y="700" as="sourcePoint" />
            <mxPoint x="304" y="700" as="targetPoint" />
            <Array as="points">
              <mxPoint x="1050" y="1030" />
              <mxPoint x="1050" y="940" />
              <mxPoint x="1050" y="830" />
            </Array>
          </mxGeometry>
        </mxCell>
        <mxCell id="bL36hwAB8mRqSMdFLCKd-73" value="" style="endArrow=classic;html=1;rounded=0;exitX=0.5;exitY=0;exitDx=0;exitDy=0;entryX=1;entryY=0.5;entryDx=0;entryDy=0;" edge="1" parent="1" source="bL36hwAB8mRqSMdFLCKd-68" target="bL36hwAB8mRqSMdFLCKd-2">
          <mxGeometry width="50" height="50" relative="1" as="geometry">
            <mxPoint x="404" y="710" as="sourcePoint" />
            <mxPoint x="314" y="710" as="targetPoint" />
            <Array as="points">
              <mxPoint x="400" y="450" />
            </Array>
          </mxGeometry>
        </mxCell>
        <mxCell id="bL36hwAB8mRqSMdFLCKd-74" value="" style="endArrow=classic;html=1;rounded=0;exitX=1;exitY=0.5;exitDx=0;exitDy=0;entryX=1;entryY=0.5;entryDx=0;entryDy=0;" edge="1" parent="1" source="bL36hwAB8mRqSMdFLCKd-9" target="bL36hwAB8mRqSMdFLCKd-6">
          <mxGeometry width="50" height="50" relative="1" as="geometry">
            <mxPoint x="414" y="720" as="sourcePoint" />
            <mxPoint x="324" y="720" as="targetPoint" />
            <Array as="points">
              <mxPoint x="420" y="995" />
              <mxPoint x="420" y="730" />
            </Array>
          </mxGeometry>
        </mxCell>
        <mxCell id="bL36hwAB8mRqSMdFLCKd-75" value="" style="endArrow=classic;html=1;rounded=0;exitX=1;exitY=0.5;exitDx=0;exitDy=0;entryX=0;entryY=0.5;entryDx=0;entryDy=0;" edge="1" parent="1" source="bL36hwAB8mRqSMdFLCKd-4" target="bL36hwAB8mRqSMdFLCKd-68">
          <mxGeometry width="50" height="50" relative="1" as="geometry">
            <mxPoint x="424" y="730" as="sourcePoint" />
            <mxPoint x="334" y="730" as="targetPoint" />
          </mxGeometry>
        </mxCell>
        <mxCell id="bL36hwAB8mRqSMdFLCKd-76" value="" style="endArrow=classic;html=1;rounded=0;exitX=0.5;exitY=0;exitDx=0;exitDy=0;entryX=1;entryY=0.5;entryDx=0;entryDy=0;" edge="1" parent="1" source="bL36hwAB8mRqSMdFLCKd-80" target="bL36hwAB8mRqSMdFLCKd-40">
          <mxGeometry width="50" height="50" relative="1" as="geometry">
            <mxPoint x="929.23" y="540" as="sourcePoint" />
            <mxPoint x="929.23" y="580" as="targetPoint" />
            <Array as="points">
              <mxPoint x="945" y="480" />
            </Array>
          </mxGeometry>
        </mxCell>
        <mxCell id="bL36hwAB8mRqSMdFLCKd-78" value="" style="endArrow=classic;html=1;rounded=0;entryX=1;entryY=0.5;entryDx=0;entryDy=0;entryPerimeter=0;exitX=0.5;exitY=1;exitDx=0;exitDy=0;" edge="1" parent="1" source="bL36hwAB8mRqSMdFLCKd-50" target="bL36hwAB8mRqSMdFLCKd-51">
          <mxGeometry width="50" height="50" relative="1" as="geometry">
            <mxPoint x="1110" y="320" as="sourcePoint" />
            <mxPoint x="1380" y="780" as="targetPoint" />
            <Array as="points">
              <mxPoint x="1110" y="1100" />
            </Array>
          </mxGeometry>
        </mxCell>
        <mxCell id="bL36hwAB8mRqSMdFLCKd-79" value="" style="endArrow=classic;html=1;rounded=0;exitX=1;exitY=0.5;exitDx=0;exitDy=0;entryX=0;entryY=0.5;entryDx=0;entryDy=0;" edge="1" parent="1" source="bL36hwAB8mRqSMdFLCKd-42" target="bL36hwAB8mRqSMdFLCKd-80">
          <mxGeometry width="50" height="50" relative="1" as="geometry">
            <mxPoint x="840" y="640" as="sourcePoint" />
            <mxPoint x="840" y="680" as="targetPoint" />
          </mxGeometry>
        </mxCell>
        <mxCell id="bL36hwAB8mRqSMdFLCKd-80" value="j++" style="whiteSpace=wrap;html=1;strokeWidth=2;" vertex="1" parent="1">
          <mxGeometry x="900" y="630" width="90" height="40" as="geometry" />
        </mxCell>
        <mxCell id="bL36hwAB8mRqSMdFLCKd-81" value="" style="endArrow=classic;html=1;rounded=0;exitX=0.5;exitY=1;exitDx=0;exitDy=0;entryX=0.5;entryY=0;entryDx=0;entryDy=0;" edge="1" parent="1" source="bL36hwAB8mRqSMdFLCKd-48" target="bL36hwAB8mRqSMdFLCKd-52">
          <mxGeometry width="50" height="50" relative="1" as="geometry">
            <mxPoint x="800" y="860" as="sourcePoint" />
            <mxPoint x="800" y="910" as="targetPoint" />
          </mxGeometry>
        </mxCell>
        <mxCell id="bL36hwAB8mRqSMdFLCKd-82" value="Text" style="text;html=1;align=center;verticalAlign=middle;resizable=0;points=[];autosize=1;strokeColor=none;fillColor=none;" vertex="1" parent="1">
          <mxGeometry x="645" y="215" width="50" height="30" as="geometry" />
        </mxCell>
        <mxCell id="bL36hwAB8mRqSMdFLCKd-87" value="A" style="shape=offPageConnector;whiteSpace=wrap;html=1;" vertex="1" parent="1">
          <mxGeometry x="386" y="360" width="54" height="50" as="geometry" />
        </mxCell>
        <mxCell id="bL36hwAB8mRqSMdFLCKd-88" value="A" style="shape=offPageConnector;whiteSpace=wrap;html=1;" vertex="1" parent="1">
          <mxGeometry x="763" y="90" width="54" height="50" as="geometry" />
        </mxCell>
        <mxCell id="bL36hwAB8mRqSMdFLCKd-89" value="&lt;br&gt;False" style="text;html=1;align=center;verticalAlign=middle;resizable=0;points=[];autosize=1;strokeColor=none;fillColor=none;" vertex="1" parent="1">
          <mxGeometry x="125" y="430" width="50" height="40" as="geometry" />
        </mxCell>
        <mxCell id="bL36hwAB8mRqSMdFLCKd-90" value="False" style="text;html=1;align=center;verticalAlign=middle;resizable=0;points=[];autosize=1;strokeColor=none;fillColor=none;" vertex="1" parent="1">
          <mxGeometry x="265" y="295" width="50" height="30" as="geometry" />
        </mxCell>
        <mxCell id="bL36hwAB8mRqSMdFLCKd-91" value="True" style="text;html=1;align=center;verticalAlign=middle;resizable=0;points=[];autosize=1;strokeColor=none;fillColor=none;" vertex="1" parent="1">
          <mxGeometry x="195" y="315" width="50" height="30" as="geometry" />
        </mxCell>
        <mxCell id="bL36hwAB8mRqSMdFLCKd-92" value="True" style="text;html=1;align=center;verticalAlign=middle;resizable=0;points=[];autosize=1;strokeColor=none;fillColor=none;" vertex="1" parent="1">
          <mxGeometry x="195" y="465" width="50" height="30" as="geometry" />
        </mxCell>
        <mxCell id="bL36hwAB8mRqSMdFLCKd-93" value="False" style="text;html=1;align=center;verticalAlign=middle;resizable=0;points=[];autosize=1;strokeColor=none;fillColor=none;" vertex="1" parent="1">
          <mxGeometry x="265" y="585" width="50" height="30" as="geometry" />
        </mxCell>
        <mxCell id="bL36hwAB8mRqSMdFLCKd-94" value="False" style="text;html=1;align=center;verticalAlign=middle;resizable=0;points=[];autosize=1;strokeColor=none;fillColor=none;" vertex="1" parent="1">
          <mxGeometry x="125" y="725" width="50" height="30" as="geometry" />
        </mxCell>
        <mxCell id="bL36hwAB8mRqSMdFLCKd-95" value="True" style="text;html=1;align=center;verticalAlign=middle;resizable=0;points=[];autosize=1;strokeColor=none;fillColor=none;" vertex="1" parent="1">
          <mxGeometry x="175" y="605" width="50" height="30" as="geometry" />
        </mxCell>
        <mxCell id="bL36hwAB8mRqSMdFLCKd-97" value="True" style="text;html=1;align=center;verticalAlign=middle;resizable=0;points=[];autosize=1;strokeColor=none;fillColor=none;" vertex="1" parent="1">
          <mxGeometry x="195" y="745" width="50" height="30" as="geometry" />
        </mxCell>
        <mxCell id="bL36hwAB8mRqSMdFLCKd-99" value="False" style="text;html=1;align=center;verticalAlign=middle;resizable=0;points=[];autosize=1;strokeColor=none;fillColor=none;" vertex="1" parent="1">
          <mxGeometry x="805" y="285" width="50" height="30" as="geometry" />
        </mxCell>
        <mxCell id="bL36hwAB8mRqSMdFLCKd-100" value="True" style="text;html=1;align=center;verticalAlign=middle;resizable=0;points=[];autosize=1;strokeColor=none;fillColor=none;" vertex="1" parent="1">
          <mxGeometry x="775" y="325" width="50" height="30" as="geometry" />
        </mxCell>
        <mxCell id="bL36hwAB8mRqSMdFLCKd-101" value="False" style="text;html=1;align=center;verticalAlign=middle;resizable=0;points=[];autosize=1;strokeColor=none;fillColor=none;" vertex="1" parent="1">
          <mxGeometry x="705" y="475" width="50" height="30" as="geometry" />
        </mxCell>
        <mxCell id="bL36hwAB8mRqSMdFLCKd-102" value="True" style="text;html=1;align=center;verticalAlign=middle;resizable=0;points=[];autosize=1;strokeColor=none;fillColor=none;" vertex="1" parent="1">
          <mxGeometry x="779" y="505" width="50" height="30" as="geometry" />
        </mxCell>
        <mxCell id="bL36hwAB8mRqSMdFLCKd-103" value="False" style="text;html=1;align=center;verticalAlign=middle;resizable=0;points=[];autosize=1;strokeColor=none;fillColor=none;" vertex="1" parent="1">
          <mxGeometry x="825" y="645" width="50" height="30" as="geometry" />
        </mxCell>
        <mxCell id="bL36hwAB8mRqSMdFLCKd-104" value="&amp;nbsp; True" style="text;html=1;align=center;verticalAlign=middle;resizable=0;points=[];autosize=1;strokeColor=none;fillColor=none;" vertex="1" parent="1">
          <mxGeometry x="775" y="675" width="50" height="30" as="geometry" />
        </mxCell>
        <mxCell id="bL36hwAB8mRqSMdFLCKd-105" value="False" style="text;html=1;align=center;verticalAlign=middle;resizable=0;points=[];autosize=1;strokeColor=none;fillColor=none;" vertex="1" parent="1">
          <mxGeometry x="705" y="825" width="50" height="30" as="geometry" />
        </mxCell>
        <mxCell id="bL36hwAB8mRqSMdFLCKd-106" value="&amp;nbsp; True" style="text;html=1;align=center;verticalAlign=middle;resizable=0;points=[];autosize=1;strokeColor=none;fillColor=none;" vertex="1" parent="1">
          <mxGeometry x="775" y="855" width="50" height="30" as="geometry" />
        </mxCell>
      </root>
    </mxGraphModel>
  </diagram>
</mxfile>
